<svg width="92" height="27" viewBox="0 0 92 27" fill="none" xmlns="http://www.w3.org/2000/svg">
<path d="M0.636719 21.5273V5.70703L7.29443 0.56543C9.31592 0.56543 10.9419 1.20264 12.1724 2.47705C12.6558 2.97803 13.0425 3.53613 13.3325 4.15137L17.9731 0.56543C19.9771 0.56543 21.603 1.20264 22.8511 2.47705C24.0376 3.68994 24.6309 5.25 24.6309 7.15723V20.3145L22.126 21.5273H21.9941V7.15723C21.9941 5.97949 21.6777 5.02588 21.0449 4.29639C20.2627 3.39111 19.2388 2.93848 17.9731 2.93848C16.6812 2.93848 15.6572 3.39111 14.9014 4.29639C14.2686 5.05225 13.9521 6.00586 13.9521 7.15723V20.3145V20.3408L11.4473 21.5273H11.3154V7.15723C11.3154 5.97949 10.999 5.02588 10.3662 4.29639C9.58398 3.39111 8.56006 2.93848 7.29443 2.93848C6.00244 2.93848 4.97852 3.39111 4.22266 4.29639C3.58984 5.05225 3.27344 6.00586 3.27344 7.15723V20.3408L0.768555 21.5273H0.636719ZM34.0571 19.4443C34.98 19.4443 35.6655 19.1763 36.1138 18.6401C36.6323 18.0161 36.8916 17.2383 36.8916 16.3066C36.8916 15.2344 36.606 14.4434 36.0347 13.9336C35.4897 13.4502 34.8306 13.2085 34.0571 13.2085C33.1343 13.2085 32.4487 13.4766 32.0005 14.0127C31.4819 14.6367 31.2227 15.4014 31.2227 16.3066C31.2227 17.4053 31.5083 18.2095 32.0796 18.7192C32.6333 19.2026 33.2925 19.4443 34.0571 19.4443ZM34.0571 21.5273C32.4224 21.4131 31.1436 20.9912 30.2207 20.2617C29.1309 19.4004 28.5859 18.0952 28.5859 16.3462V15.3574L34.0571 11.1255C35.1646 11.2046 36.1094 11.4243 36.8916 11.7847V11.1519C36.8916 10.0884 36.606 9.29736 36.0347 8.77881C35.4897 8.29541 34.8306 8.05371 34.0571 8.05371C33.1958 8.05371 32.5103 8.32178 32.0005 8.85791L31.2754 8.11963L34.0571 5.9707C35.7183 6.08496 36.9971 6.50684 37.8936 7.23633C38.9834 8.12402 39.5283 9.4292 39.5283 11.1519V20.3408L37.0234 21.5273H36.8916V19.3257L34.0571 21.5273ZM44.1426 21.5273V7.15723L46.6475 5.9707H46.7793V20.3408L44.2744 21.5273H44.1426ZM46.7793 0.56543V3.57129L44.2744 4.75781H44.1426V1.75195L46.6475 0.56543H46.7793ZM56.4692 21.5273C54.8081 21.4131 53.5293 20.9912 52.6328 20.2617C51.543 19.374 50.998 18.0688 50.998 16.3462L53.5029 15.1597H53.6348V16.3462C53.6348 17.4097 53.9204 18.2007 54.4917 18.7192C55.0366 19.2026 55.6958 19.4443 56.4692 19.4443C57.313 19.4443 57.9941 19.1763 58.5127 18.6401C59.04 18.104 59.3037 17.3438 59.3037 16.3594C59.3037 15.3662 59.0093 14.6851 58.4204 14.3159C57.9106 13.9995 57.2559 13.8413 56.4561 13.8413C54.3994 13.8413 52.9668 13.3667 52.1582 12.4175C51.7539 11.9341 51.5518 11.0552 51.5518 9.78076L56.4692 5.9707C57.7524 5.99707 58.8291 6.38379 59.6992 7.13086C60.4023 7.7373 60.8374 8.52832 61.0044 9.50391L58.4995 10.6904H58.3677V10.3081C58.3677 9.67529 58.2358 9.19629 57.9722 8.87109C57.5327 8.32617 56.9307 8.05371 56.166 8.05371C55.4102 8.05371 54.8433 8.29102 54.4653 8.76562C54.1929 9.1084 54.0566 9.53027 54.0566 10.0312C54.0566 10.5938 54.2939 11.042 54.7686 11.376C55.0322 11.5605 55.5947 11.6528 56.4561 11.6528C58.3457 11.6528 59.7036 12.0176 60.5298 12.7471C61.4702 13.5732 61.9404 15.0894 61.9404 17.2954L56.4692 21.5273ZM70.9712 21.5273C69.3101 21.4131 68.0312 20.9912 67.1348 20.2617C66.0449 19.374 65.5 18.0688 65.5 16.3462V7.15723L68.0049 5.9707H68.1367V16.3462C68.1367 17.4448 68.4224 18.2358 68.9937 18.7192C69.5649 19.2026 70.2197 19.4443 70.958 19.4443C71.7139 19.4443 72.4038 19.1763 73.0278 18.6401C73.5464 18.1919 73.8057 17.4272 73.8057 16.3462V7.15723L76.3105 5.9707H76.4424V22.7007L70.9712 26.9326C69.1343 26.8096 67.8643 26.3965 67.1611 25.6934L68.9937 24.1245C69.521 24.6079 70.1714 24.8496 70.9448 24.8496C71.7358 24.8496 72.4302 24.5815 73.0278 24.0454C73.5464 23.5796 73.8057 22.8149 73.8057 21.7515V19.3257L70.9712 21.5273ZM85.8687 19.4443C86.7915 19.4443 87.4771 19.1763 87.9253 18.6401C88.4438 18.0161 88.7031 17.2383 88.7031 16.3066C88.7031 15.2344 88.4175 14.4434 87.8462 13.9336C87.3013 13.4502 86.6421 13.2085 85.8687 13.2085C84.9458 13.2085 84.2603 13.4766 83.812 14.0127C83.2935 14.6367 83.0342 15.4014 83.0342 16.3066C83.0342 17.4053 83.3198 18.2095 83.8911 18.7192C84.4448 19.2026 85.104 19.4443 85.8687 19.4443ZM85.8687 21.5273C84.2339 21.4131 82.9551 20.9912 82.0322 20.2617C80.9424 19.4004 80.3975 18.0952 80.3975 16.3462V15.3574L85.8687 11.1255C86.9761 11.2046 87.9209 11.4243 88.7031 11.7847V11.1519C88.7031 10.0884 88.4175 9.29736 87.8462 8.77881C87.3013 8.29541 86.6421 8.05371 85.8687 8.05371C85.0073 8.05371 84.3218 8.32178 83.812 8.85791L83.0869 8.11963L85.8687 5.9707C87.5298 6.08496 88.8086 6.50684 89.7051 7.23633C90.7949 8.12402 91.3398 9.4292 91.3398 11.1519V20.3408L88.835 21.5273H88.7031V19.3257L85.8687 21.5273Z" fill="white"/>
</svg>
